<svg xmlns="http://www.w3.org/2000/svg" width="10.728" height="10.728" viewBox="0 0 10.728 10.728">
  <g id="Group_1275" data-name="Group 1275" transform="translate(-1858.951 -1829.723)">
    <path id="Path_1421" data-name="Path 1421" d="M1869.676,1832.944a3.075,3.075,0,0,0-.7-2.1c-.064-.078-.13-.151-.2-.218a2.694,2.694,0,0,0-.217-.2,3.083,3.083,0,0,0-4.146.2l-4.554,4.553a3.072,3.072,0,0,0-.326,3.979,3.029,3.029,0,0,0,.324.386,2.934,2.934,0,0,0,.385.323,3.072,3.072,0,0,0,3.98-.325l4.554-4.554A3.081,3.081,0,0,0,1869.676,1832.944Zm-1.637-1.881a2.01,2.01,0,0,1,.158.142,2.143,2.143,0,0,1,.143.16,2.253,2.253,0,0,1-.144,3.045l-1.994,1.995L1863,1833.2l1.995-1.994A2.254,2.254,0,0,1,1868.039,1831.063Zm-7.445,8.045c-.057-.047-.11-.1-.158-.142s-.094-.1-.143-.16a2.253,2.253,0,0,1,.144-3.045l1.995-1.995,3.2,3.2-1.995,1.995A2.255,2.255,0,0,1,1860.594,1839.108Z" fill="#d5d6d9"/>
    <path id="Path_1422" data-name="Path 1422" d="M1860.594,1839.108c-.057-.047-.11-.1-.158-.142s-.094-.1-.143-.16a2.253,2.253,0,0,1,.144-3.045l1.995-1.995,3.2,3.2-1.995,1.995A2.255,2.255,0,0,1,1860.594,1839.108Z" fill="#5d658c" opacity="0.5"/>
  </g>
</svg>
