<svg xmlns="http://www.w3.org/2000/svg" width="120" height="120" viewBox="0 0 120 120">
  <g id="Group_1721" data-name="Group 1721" transform="translate(-12106.882 -3597.469)">
    <rect id="Rectangle_1079" data-name="Rectangle 1079" width="120" height="120" rx="60" transform="translate(12106.882 3597.469)" fill="none" opacity="0.2"/>
    <g id="Group_1720" data-name="Group 1720">
      <path id="Path_1811" data-name="Path 1811" d="M12156.351,3642.735v-19.146a.7.7,0,0,0-.7-.7h-12.213a.7.7,0,0,0-.7.7v19.146a14.2,14.2,0,0,0-7.422,12.5v36.125a.7.7,0,0,0,.7.7h27.059a.7.7,0,0,0,.7-.7v-36.125A14.2,14.2,0,0,0,12156.351,3642.735Zm3.234,45.131h-20.076v-8.454h20.076Zm-13.3-42.158a1.051,1.051,0,0,0,.643-.967v-7.976h5.231v7.976a1.053,1.053,0,0,0,.644.967l.638.27a10.023,10.023,0,0,1,6.141,9.254v3.177h-20.074v-3.177a10.023,10.023,0,0,1,6.142-9.254Zm5.874-18.631v5.5h-5.231v-5.5Zm7.422,35.521v12.629h-20.074V3662.6Z" fill="#5d658c"/>
      <path id="Path_1812" data-name="Path 1812" d="M12198.442,3666.4v-10.892a.7.7,0,0,0-.7-.7h-24.577a.7.7,0,0,0-.7.7V3666.4a13,13,0,0,0,10.893,12.812v8.653h-8.729a.7.7,0,0,0-.7.7v2.792a.7.7,0,0,0,.7.7h21.646a.7.7,0,0,0,.7-.7v-2.792a.7.7,0,0,0-.7-.7h-8.729v-8.653A13,13,0,0,0,12198.442,3666.4Zm-21.784-7.4h17.594v7.4a8.8,8.8,0,0,1-17.594,0Z" fill="#5d658c"/>
      <rect id="Rectangle_1080" data-name="Rectangle 1080" width="87.273" height="87.274" transform="translate(12123.246 3613.832)" fill="none"/>
    </g>
  </g>
</svg>
