<svg xmlns="http://www.w3.org/2000/svg" width="19.999" height="20" viewBox="0 0 19.999 20">
  <g id="Group_1261" data-name="Group 1261" transform="translate(-2346.849 -1772.004)">
    <g id="Group_1260" data-name="Group 1260">
      <g id="Group_1259" data-name="Group 1259">
        <rect id="Rectangle_783" data-name="Rectangle 783" width="15.999" height="16" rx="1.6" transform="translate(2348.849 1774.004)" fill="#8089aa"/>
        <path id="Path_1413" data-name="Path 1413" d="M2355.37,1787.037a.366.366,0,0,1-.287,0l-.034-.015a9.507,9.507,0,0,1-3-2.06,7.468,7.468,0,0,1-2.006-3.371,3.57,3.57,0,0,1,1.763-4.371,9.084,9.084,0,0,0,6.833,0,3.562,3.562,0,0,1,1.756,4.371,7.376,7.376,0,0,1-2,3.371,9.553,9.553,0,0,1-2.991,2.06Zm8.28-5.446a7.381,7.381,0,0,1-2.009,3.371,9.617,9.617,0,0,1-2.843,2,.151.151,0,0,1-.2-.085l-.245-.583a.162.162,0,0,1,.093-.209,7.888,7.888,0,0,0,4.29-4.721,2.665,2.665,0,0,0-1.24-3.287,2.328,2.328,0,0,0-.6-.177.159.159,0,0,1-.142-.169l.04-.629a.151.151,0,0,1,.164-.145,2.992,2.992,0,0,1,.93.262A3.566,3.566,0,0,1,2363.65,1781.591Zm-4.04-1.186a2.461,2.461,0,0,0-1.362-2.327,2.034,2.034,0,0,0-2.631.833l-.306.46a.1.1,0,0,1-.169,0l-.309-.46a2.034,2.034,0,0,0-2.631-.833,2.46,2.46,0,0,0-1.359,2.327,3.838,3.838,0,0,0,.125.96,4.281,4.281,0,1,0,8.52,0A3.978,3.978,0,0,0,2359.61,1780.405Z" fill="#fff"/>
      </g>
      <rect id="Rectangle_784" data-name="Rectangle 784" width="19.999" height="19.999" transform="translate(2346.849 1772.004)" fill="none"/>
    </g>
  </g>
</svg>
