<svg xmlns="http://www.w3.org/2000/svg" width="71.883" height="72" viewBox="0 0 71.883 72">
  <g id="Group_550" data-name="Group 550" transform="translate(-3016.059 -3620.039)">
    <path id="Path_660" data-name="Path 660" d="M3052,3626.039a30.034,30.034,0,0,0-29.926,28h59.852A30.034,30.034,0,0,0,3052,3626.039Z" fill="#9b245a" opacity="0.6"/>
    <path id="Path_661" data-name="Path 661" d="M3052,3626.039a30.034,30.034,0,0,1,29.926,28h6.016a36,36,0,0,0-71.883,0h6.015A30.034,30.034,0,0,1,3052,3626.039Z" fill="#9b245a"/>
    <path id="Path_662" data-name="Path 662" d="M3052,3686.039a30.035,30.035,0,0,1-29.926-28h-6.015a36,36,0,0,0,71.883,0h-6.016A30.035,30.035,0,0,1,3052,3686.039Z" fill="#db4a86"/>
    <path id="Path_663" data-name="Path 663" d="M3052,3686.039a30.035,30.035,0,0,0,29.926-28h-59.852A30.035,30.035,0,0,0,3052,3686.039Z" fill="#db4a86" opacity="0.35"/>
  </g>
</svg>
