<svg xmlns="http://www.w3.org/2000/svg" width="16" height="16" viewBox="0 0 16 16">
  <g id="Group_1557" data-name="Group 1557" transform="translate(-2102.327 -1851.104)">
    <path id="Path_1824" data-name="Path 1824" d="M2108.4,1856.4v-3.509a.128.128,0,0,0-.128-.129h-2.239a.129.129,0,0,0-.128.129v3.509a2.6,2.6,0,0,0-1.36,2.292v6.622a.128.128,0,0,0,.128.129h4.96a.129.129,0,0,0,.128-.129v-6.622A2.6,2.6,0,0,0,2108.4,1856.4Zm.593,8.274h-3.68v-1.549h3.68Zm-2.438-7.728a.193.193,0,0,0,.118-.178v-1.462h.959v1.462a.2.2,0,0,0,.118.178l.117.049a1.837,1.837,0,0,1,1.126,1.7v.582h-3.68v-.582a1.837,1.837,0,0,1,1.126-1.7Zm1.077-3.416v1.008h-.959v-1.008Zm1.361,6.512v2.315h-3.68v-2.315Z" fill="#5d658c"/>
    <path id="Path_1825" data-name="Path 1825" d="M2116.113,1860.741v-2a.127.127,0,0,0-.128-.127h-4.506a.127.127,0,0,0-.128.127v2a2.384,2.384,0,0,0,2,2.349v1.586h-1.6a.128.128,0,0,0-.128.129v.511a.128.128,0,0,0,.128.129h3.968a.128.128,0,0,0,.128-.129v-.511a.128.128,0,0,0-.128-.129h-1.6v-1.586A2.384,2.384,0,0,0,2116.113,1860.741Zm-3.994-1.357h3.226v1.357a1.613,1.613,0,0,1-3.226,0Z" fill="#5d658c"/>
    <g id="Group_1556" data-name="Group 1556">
      <rect id="Rectangle_911" data-name="Rectangle 911" width="20" height="0.8" transform="translate(2117.964 1852.598) rotate(135)" fill="#fff"/>
      <rect id="Rectangle_912" data-name="Rectangle 912" width="20" height="0.8" transform="translate(2117.398 1852.033) rotate(135)" fill="#5d658c"/>
    </g>
    <rect id="Rectangle_913" data-name="Rectangle 913" width="16" height="16" transform="translate(2102.327 1851.104)" fill="none"/>
  </g>
</svg>
