<svg xmlns="http://www.w3.org/2000/svg" width="120" height="120" viewBox="0 0 120 120">
  <g id="Group_1757" data-name="Group 1757" transform="translate(-12106.882 -3997.469)">
    <g id="Group_1754" data-name="Group 1754" opacity="0.5">
      <rect id="Rectangle_1112" data-name="Rectangle 1112" width="120" height="120" rx="60" transform="translate(12106.882 3997.469)" fill="none" opacity="0.5"/>
    </g>
    <g id="Group_1756" data-name="Group 1756">
      <rect id="Rectangle_1113" data-name="Rectangle 1113" width="87.273" height="87.273" transform="translate(12123.246 4013.832)" fill="none"/>
      <g id="Group_1755" data-name="Group 1755">
        <path id="Path_1827" data-name="Path 1827" d="M12166.882,4028.843a28.667,28.667,0,0,0-28.214,23.819,10.487,10.487,0,0,1,3.776-.71h.638a24.451,24.451,0,1,1,4.111,19.969,10.511,10.511,0,0,1-4.31,1.123,28.619,28.619,0,1,0,24-44.2Z" fill="#5d658c"/>
        <rect id="Rectangle_1114" data-name="Rectangle 1114" width="13" height="4.189" rx="0.698" transform="translate(12171.072 4055.374)" fill="#5d658c"/>
        <path id="Path_1828" data-name="Path 1828" d="M12160.13,4049.952h-17.686a12.556,12.556,0,1,0,12.313,15.045h5.372a7.523,7.523,0,0,0,0-15.045Zm-18.039,20.9a8.363,8.363,0,0,1-7.947-9.366,8.525,8.525,0,0,1,8.545-7.338h17.253a3.443,3.443,0,0,1,3.5,3.137,3.327,3.327,0,0,1-3.312,3.508h-8.7a.692.692,0,0,0-.691.77,7.662,7.662,0,0,1-1.645,5.712A8.452,8.452,0,0,1,12142.091,4070.856Z" fill="#5d658c"/>
      </g>
    </g>
  </g>
</svg>
