<svg xmlns="http://www.w3.org/2000/svg" width="30" height="30" viewBox="0 0 30 30">
  <title>help</title>
  <g id="21e49175-930c-4e82-939f-6973f06639e2" data-name="Layer 2">
    <g id="13f09957-8c01-4f72-b396-9dd70cee544b" data-name="navigation">
      <g>
        <rect width="30" height="30" fill="none"/>
        <g>
          <path d="M15,4A11,11,0,1,1,4,15,11,11,0,0,1,15,4Zm0,20.09A9.09,9.09,0,1,0,5.91,15,9.1,9.1,0,0,0,15,24.09Z" fill="#fff"/>
          <circle cx="15" cy="20.28" r="1.41" fill="#fff"/>
          <path d="M16,17.52a.24.24,0,0,1-.24.24h-1.4a.24.24,0,0,1-.24-.24v-.41a3,3,0,0,1,.14-1,3.31,3.31,0,0,1,.49-.88l1.44-1.94a2.4,2.4,0,0,0,.58-1.4,1.83,1.83,0,0,0-.5-1.32,1.73,1.73,0,0,0-1.31-.53,1.8,1.8,0,0,0-1,.25,1.62,1.62,0,0,0-.63.68,2.07,2.07,0,0,0-.2.71.24.24,0,0,1-.24.23h-1.4a.24.24,0,0,1-.24-.25,3.57,3.57,0,0,1,.26-1.17,3.24,3.24,0,0,1,.78-1.13,3.53,3.53,0,0,1,1.18-.73,4,4,0,0,1,1.44-.25,4.15,4.15,0,0,1,1.45.25,3.53,3.53,0,0,1,1.17.7,3.26,3.26,0,0,1,.79,1.12,3.59,3.59,0,0,1,.29,1.46,2.89,2.89,0,0,1-.23,1.15,5.68,5.68,0,0,1-.66,1.12l-1.41,2a1.58,1.58,0,0,0-.25.5,1.74,1.74,0,0,0-.09.49Z" fill="#fff"/>
        </g>
      </g>
    </g>
  </g>
</svg>
