<svg xmlns="http://www.w3.org/2000/svg" width="71.883" height="72" viewBox="0 0 71.883 72">
  <g id="Group_548" data-name="Group 548" transform="translate(-3230.059 -3620.039)">
    <path id="Path_652" data-name="Path 652" d="M3266,3626.039a30.034,30.034,0,0,0-29.926,28h59.852A30.034,30.034,0,0,0,3266,3626.039Z" fill="#db4a86" opacity="0.35"/>
    <path id="Path_653" data-name="Path 653" d="M3266,3626.039a30.034,30.034,0,0,1,29.926,28h6.016a36,36,0,0,0-71.883,0h6.015A30.034,30.034,0,0,1,3266,3626.039Z" fill="#db4a86"/>
    <path id="Path_654" data-name="Path 654" d="M3266,3686.039a30.035,30.035,0,0,1-29.926-28h-6.015a36,36,0,0,0,71.883,0h-6.016A30.035,30.035,0,0,1,3266,3686.039Z" fill="#ecedf0"/>
    <path id="Path_655" data-name="Path 655" d="M3266,3686.039a30.035,30.035,0,0,0,29.926-28h-59.852A30.035,30.035,0,0,0,3266,3686.039Z" fill="#ecedf0" opacity="0.3"/>
  </g>
</svg>
