<svg xmlns="http://www.w3.org/2000/svg" width="42" height="32" viewBox="0 0 42 32">
  <g id="Group_1832" data-name="Group 1832" transform="translate(-11088.341 -4186.058)">
    <rect id="Rectangle_1152" data-name="Rectangle 1152" width="42" height="32" transform="translate(11088.341 4186.058)" fill="none"/>
    <g id="Group_1831" data-name="Group 1831">
      <path id="Path_1883" data-name="Path 1883" d="M11109.791,4197.775a6.146,6.146,0,0,0-1.406-4.2c-.128-.156-.26-.3-.394-.437a5.67,5.67,0,0,0-.435-.391,6.169,6.169,0,0,0-8.293.393l-9.106,9.107a6.144,6.144,0,0,0-.652,7.958,5.8,5.8,0,0,0,1.418,1.418,6.143,6.143,0,0,0,7.959-.65l9.108-9.108A6.161,6.161,0,0,0,11109.791,4197.775Zm-3.274-3.762a3.937,3.937,0,0,1,.316.284,4.02,4.02,0,0,1,.286.319,4.506,4.506,0,0,1-.288,6.09l-3.989,3.99-6.409-6.409,3.99-3.989A4.509,4.509,0,0,1,11106.517,4194.013Zm-14.89,16.089q-.171-.14-.316-.284a3.922,3.922,0,0,1-.285-.319,4.505,4.505,0,0,1,.288-6.09l3.988-3.99,6.408,6.408-3.989,3.99A4.509,4.509,0,0,1,11091.627,4210.1Z" fill="#5d658c"/>
      <g id="Group_1829" data-name="Group 1829">
        <path id="Path_1884" data-name="Path 1884" d="M11118.625,4193.575c-.128-.156-.26-.3-.394-.437a5.65,5.65,0,0,0-.435-.391,6.16,6.16,0,0,0-8.2.31,7.32,7.32,0,0,1,.856,1.453l.212-.212a4.509,4.509,0,0,1,6.094-.285,4.112,4.112,0,0,1,.316.284,4.221,4.221,0,0,1,.286.319,4.506,4.506,0,0,1-.288,6.09l-3.989,3.99-3.184-3.184a7.42,7.42,0,0,1-1,1.258h0l3.057,3.056-3.989,3.99a4.509,4.509,0,0,1-6.094.285c-.059-.047-.107-.1-.16-.144l-1.16,1.16a5.865,5.865,0,0,0,.616.5,6.143,6.143,0,0,0,7.959-.65l9.108-9.108a6.169,6.169,0,0,0,.395-8.29Z" fill="#5d658c"/>
        <path id="Path_1885" data-name="Path 1885" d="M11101.867,4210.1a4.509,4.509,0,0,0,6.094-.285l3.989-3.99-3.057-3.056-7.187,7.187C11101.76,4210.006,11101.809,4210.055,11101.867,4210.1Z" fill="#5d658c" opacity="0.5"/>
      </g>
      <g id="Group_1830" data-name="Group 1830">
        <path id="Path_1886" data-name="Path 1886" d="M11128.671,4193.575c-.127-.156-.26-.3-.393-.437a5.65,5.65,0,0,0-.435-.391,6.16,6.16,0,0,0-8.2.31,7.273,7.273,0,0,1,.856,1.453l.211-.212a4.51,4.51,0,0,1,6.095-.285,4.094,4.094,0,0,1,.315.284c.1.1.188.2.287.319a4.508,4.508,0,0,1-.288,6.09l-3.99,3.99-3.183-3.184a7.463,7.463,0,0,1-1,1.258h0l3.056,3.056-3.989,3.99a4.51,4.51,0,0,1-6.095.285c-.057-.047-.106-.1-.16-.144l-1.159,1.16a5.853,5.853,0,0,0,.615.5,6.144,6.144,0,0,0,7.96-.65l9.107-9.108a6.169,6.169,0,0,0,.395-8.29Z" fill="#d5d6d9"/>
        <path id="Path_1887" data-name="Path 1887" d="M11111.913,4210.1a4.51,4.51,0,0,0,6.095-.285l3.989-3.99-3.056-3.056-7.188,7.187C11111.807,4210.006,11111.856,4210.055,11111.913,4210.1Z" fill="#d5d6d9" opacity="0.5"/>
      </g>
      <path id="Path_1888" data-name="Path 1888" d="M11091.627,4210.1q-.171-.14-.316-.284a3.922,3.922,0,0,1-.285-.319,4.505,4.505,0,0,1,.288-6.09l3.988-3.99,6.408,6.408-3.989,3.99A4.509,4.509,0,0,1,11091.627,4210.1Z" fill="#5d658c" opacity="0.5"/>
    </g>
  </g>
</svg>
