<svg xmlns="http://www.w3.org/2000/svg" width="15.917" height="15.917" viewBox="0 0 15.917 15.917">
  <g id="Group_1530" data-name="Group 1530" transform="translate(-1876.357 -1851.104)">
    <g id="Group_1529" data-name="Group 1529">
      <path id="Path_1806" data-name="Path 1806" d="M1888.423,1862.143a1.077,1.077,0,0,0-.766-.318h-1.423l-.8-1.356.1-.271a1.018,1.018,0,0,0,.639-.3l1.175-1.172a1.03,1.03,0,0,0,0-1.457l-1.816-1.816a1.837,1.837,0,0,0-1.23-3.2h0a1.836,1.836,0,0,0-1.125,3.288l-.006.013a2.045,2.045,0,0,0-.226.967v.725h-1.027a1.031,1.031,0,0,0,0,2.061h1.027v1.7l-1.391,3.925a1.083,1.083,0,0,0,.659,1.385,1.086,1.086,0,0,0,1.385-.66l.9-2.529.076.128a1.5,1.5,0,0,0,1.289.735h1.8a1.085,1.085,0,0,0,.766-1.852Zm-2.571,1.089a.745.745,0,0,1-.632-.36l-.4-.677.28-.787.635,1.073a.222.222,0,0,0,.192.109h1.731a.321.321,0,0,1,0,.642Zm-3.391,2.37a.32.32,0,0,1-.2-.409l1.393-3.93a.742.742,0,0,0,.042-.247v-4.491a1.314,1.314,0,0,1,.152-.64.973.973,0,0,0,.122-.427.544.544,0,0,0-.255-.459,1.072,1.072,0,0,1,.574-1.978h0a1.072,1.072,0,0,1,.573,1.978.546.546,0,0,0-.254.426.409.409,0,0,0,.06.241,2.408,2.408,0,0,0,.263.283l1.775,1.775a.524.524,0,0,1,.157.2.29.29,0,0,1,.011.078.263.263,0,0,1-.078.187l-1.174,1.172a.268.268,0,0,1-.188.078h0a.266.266,0,0,1-.267-.266.262.262,0,0,1,.079-.188l.894-.9a.127.127,0,0,0,0-.18l-1.012-1.012a.129.129,0,0,0-.18,0l-.36.36a.127.127,0,0,0,0,.18l.561.562-.444.444a1.03,1.03,0,0,0,.085,1.533l-1.925,5.43A.321.321,0,0,1,1882.461,1865.6Zm-.817-7.322a.266.266,0,0,1,.266-.266h1.027v.533h-1.027A.267.267,0,0,1,1881.644,1858.28Z" fill="#5d658c"/>
    </g>
    <rect id="Rectangle_893" data-name="Rectangle 893" width="15.917" height="15.917" transform="translate(1876.357 1851.104)" fill="none"/>
  </g>
</svg>
