<svg xmlns="http://www.w3.org/2000/svg" width="71.883" height="72" viewBox="0 0 71.883 72">
  <g id="Group_570" data-name="Group 570" transform="translate(-3123.059 -4154.039)">
    <path id="Path_740" data-name="Path 740" d="M3159,4160.039a30.034,30.034,0,0,0-29.926,28h59.852A30.034,30.034,0,0,0,3159,4160.039Z" fill="#008ad6" opacity="0.35"/>
    <path id="Path_741" data-name="Path 741" d="M3159,4160.039a30.034,30.034,0,0,1,29.926,28h6.016a36,36,0,0,0-71.883,0h6.015A30.034,30.034,0,0,1,3159,4160.039Z" fill="#008ad6"/>
    <path id="Path_742" data-name="Path 742" d="M3159,4220.039a30.035,30.035,0,0,1-29.926-28h-6.015a36,36,0,0,0,71.883,0h-6.016A30.035,30.035,0,0,1,3159,4220.039Z" fill="#db4a86"/>
    <path id="Path_743" data-name="Path 743" d="M3159,4220.039a30.035,30.035,0,0,0,29.926-28h-59.852A30.035,30.035,0,0,0,3159,4220.039Z" fill="#db4a86" opacity="0.35"/>
  </g>
</svg>
