<svg xmlns="http://www.w3.org/2000/svg" width="71.883" height="72" viewBox="0 0 71.883 72">
  <g id="Group_543" data-name="Group 543" transform="translate(-3551.059 -3442.039)">
    <path id="Path_632" data-name="Path 632" d="M3587,3448.039a30.034,30.034,0,0,0-29.926,28h59.852A30.034,30.034,0,0,0,3587,3448.039Z" fill="#008ad6" opacity="0.35"/>
    <path id="Path_633" data-name="Path 633" d="M3587,3448.039a30.034,30.034,0,0,1,29.926,28h6.016a36,36,0,0,0-71.883,0h6.015A30.034,30.034,0,0,1,3587,3448.039Z" fill="#008ad6"/>
    <path id="Path_634" data-name="Path 634" d="M3587,3508.039a30.035,30.035,0,0,1-29.926-28h-6.015a36,36,0,0,0,71.883,0h-6.016A30.035,30.035,0,0,1,3587,3508.039Z" fill="#008ad6"/>
    <path id="Path_635" data-name="Path 635" d="M3587,3508.039a30.035,30.035,0,0,0,29.926-28h-59.852A30.035,30.035,0,0,0,3587,3508.039Z" fill="#008ad6" opacity="0.35"/>
  </g>
</svg>
