<svg xmlns="http://www.w3.org/2000/svg" width="120" height="120" viewBox="0 0 120 120">
  <g id="Group_1751" data-name="Group 1751" transform="translate(-12106.882 -3797.469)">
    <rect id="Rectangle_1108" data-name="Rectangle 1108" width="120" height="120" rx="60" transform="translate(12106.882 3797.469)" fill="none" opacity="0.5"/>
    <g id="Group_1750" data-name="Group 1750">
      <rect id="Rectangle_1109" data-name="Rectangle 1109" width="87.273" height="87.273" transform="translate(12123.246 3813.832)" fill="none"/>
      <path id="Path_1825" data-name="Path 1825" d="M12166.878,3886.094a28.625,28.625,0,1,1,28.622-28.622,28.645,28.645,0,0,1-28.622,28.622m0-53.048a24.423,24.423,0,1,0,24.427,24.426A24.454,24.454,0,0,0,12166.878,3833.046Zm-10.693,28.206a9.768,9.768,0,0,0,7.689-3.751.636.636,0,0,0-.18-.932l-2.31-1.578a.773.773,0,0,0-1,.172,5.566,5.566,0,0,1-8.391,0,.772.772,0,0,0-1-.172l-2.31,1.578a.641.641,0,0,0-.179.932,9.742,9.742,0,0,0,7.687,3.751m21.387,0a9.756,9.756,0,0,0,7.694-3.751.645.645,0,0,0-.179-.932l-2.315-1.578a.763.763,0,0,0-1,.172,5.59,5.59,0,0,1-8.412,0,.75.75,0,0,0-.99-.172l-2.316,1.578a.64.64,0,0,0-.173.932,9.735,9.735,0,0,0,7.688,3.751" fill="#5d658c"/>
    </g>
  </g>
</svg>
