<svg xmlns="http://www.w3.org/2000/svg" width="71.883" height="72" viewBox="0 0 71.883 72">
  <g id="Group_544" data-name="Group 544" transform="translate(-3658.059 -3442.039)">
    <path id="Path_636" data-name="Path 636" d="M3694,3448.039a30.034,30.034,0,0,0-29.926,28h59.852A30.034,30.034,0,0,0,3694,3448.039Z" fill="#008ad6" opacity="0.35"/>
    <path id="Path_637" data-name="Path 637" d="M3694,3448.039a30.034,30.034,0,0,1,29.926,28h6.016a36,36,0,0,0-71.883,0h6.015A30.034,30.034,0,0,1,3694,3448.039Z" fill="#008ad6"/>
    <path id="Path_638" data-name="Path 638" d="M3694,3508.039a30.035,30.035,0,0,1-29.926-28h-6.015a36,36,0,0,0,71.883,0h-6.016A30.035,30.035,0,0,1,3694,3508.039Z" fill="#db4a86"/>
    <path id="Path_639" data-name="Path 639" d="M3694,3508.039a30.035,30.035,0,0,0,29.926-28h-59.852A30.035,30.035,0,0,0,3694,3508.039Z" fill="#db4a86" opacity="0.35"/>
  </g>
</svg>
