<svg xmlns="http://www.w3.org/2000/svg" width="42" height="32" viewBox="0 0 42 32">
  <g id="Group_1820" data-name="Group 1820" transform="translate(-11092.203 -4248.316)">
    <rect id="Rectangle_1148" data-name="Rectangle 1148" width="42" height="32" transform="translate(11092.203 4248.316)" fill="none"/>
    <g id="Group_1819" data-name="Group 1819">
      <path id="Path_1863" data-name="Path 1863" d="M11113.652,4260.034a6.151,6.151,0,0,0-1.406-4.2,5.83,5.83,0,0,0-.394-.437c-.135-.135-.282-.267-.434-.391a6.17,6.17,0,0,0-8.293.393l-9.108,9.107a6.144,6.144,0,0,0-.65,7.958,5.727,5.727,0,0,0,1.417,1.418,6.144,6.144,0,0,0,7.96-.65l9.106-9.108A6.149,6.149,0,0,0,11113.652,4260.034Zm-3.273-3.762q.17.14.315.284c.1.1.188.2.287.319a4.508,4.508,0,0,1-.288,6.09l-3.99,3.99-6.408-6.408,3.989-3.99A4.51,4.51,0,0,1,11110.379,4256.272Zm-14.891,16.089c-.113-.093-.22-.188-.315-.284s-.188-.2-.287-.319a4.508,4.508,0,0,1,.288-6.09l3.99-3.99,6.408,6.408-3.99,3.99A4.51,4.51,0,0,1,11095.488,4272.361Z" fill="#5d658c"/>
      <g id="Group_1817" data-name="Group 1817">
        <path id="Path_1864" data-name="Path 1864" d="M11122.486,4255.834c-.127-.156-.261-.3-.394-.437s-.283-.267-.434-.391a6.162,6.162,0,0,0-8.2.31,7.371,7.371,0,0,1,.856,1.453l.211-.212a4.51,4.51,0,0,1,6.095-.285c.113.093.219.188.314.284a3.93,3.93,0,0,1,.287.319,4.508,4.508,0,0,1-.288,6.09l-3.989,3.99-3.184-3.184a7.444,7.444,0,0,1-1,1.258h0l3.056,3.056-3.989,3.99a4.511,4.511,0,0,1-6.095.285c-.057-.047-.105-.1-.159-.144l-1.16,1.16a5.708,5.708,0,0,0,.616.5,6.144,6.144,0,0,0,7.96-.65l9.106-9.108a6.17,6.17,0,0,0,.4-8.29Z" fill="#d5d6d9"/>
        <path id="Path_1865" data-name="Path 1865" d="M11105.728,4272.361a4.511,4.511,0,0,0,6.095-.285l3.989-3.99-3.056-3.056-7.187,7.187C11105.622,4272.265,11105.671,4272.314,11105.728,4272.361Z" fill="#d5d6d9" opacity="0.5"/>
      </g>
      <g id="Group_1818" data-name="Group 1818">
        <path id="Path_1866" data-name="Path 1866" d="M11132.533,4255.834a5.633,5.633,0,0,0-.395-.437c-.134-.134-.281-.267-.433-.391a6.161,6.161,0,0,0-8.2.31,7.367,7.367,0,0,1,.855,1.453l.212-.212a4.509,4.509,0,0,1,6.094-.285q.171.14.316.284a3.922,3.922,0,0,1,.285.319,4.506,4.506,0,0,1-.288,6.09l-3.988,3.99-3.185-3.184a7.4,7.4,0,0,1-1,1.258h0l3.058,3.056-3.99,3.99a4.51,4.51,0,0,1-6.094.285c-.059-.047-.107-.1-.16-.144l-1.16,1.16a5.708,5.708,0,0,0,.616.5,6.143,6.143,0,0,0,7.959-.65l9.107-9.108a6.168,6.168,0,0,0,.4-8.29Z" fill="#d5d6d9"/>
        <path id="Path_1867" data-name="Path 1867" d="M11115.775,4272.361a4.51,4.51,0,0,0,6.094-.285l3.99-3.99-3.058-3.056-7.187,7.187C11115.668,4272.265,11115.717,4272.314,11115.775,4272.361Z" fill="#d5d6d9" opacity="0.5"/>
      </g>
      <path id="Path_1868" data-name="Path 1868" d="M11095.488,4272.361c-.113-.093-.22-.188-.315-.284s-.188-.2-.287-.319a4.508,4.508,0,0,1,.288-6.09l3.99-3.99,6.408,6.408-3.99,3.99A4.51,4.51,0,0,1,11095.488,4272.361Z" fill="#5d658c" opacity="0.5"/>
    </g>
  </g>
</svg>
