<svg xmlns="http://www.w3.org/2000/svg" viewBox="0 0 60 60">
  <title>Asset 2</title>
  <g id="5fdb3324-39e2-449b-a8ac-d2edce29665d" data-name="Layer 2">
    <g id="23e741eb-7b38-4130-9a2d-b99b5a7f50da" data-name="navigation">
      <g>
        <rect width="60" height="60" fill="none"/>
        <g>
          <path d="M45.5,39.44a18.22,18.22,0,0,1-33.77-8.23l3.48,3.48a.56.56,0,0,0,.79,0L17.6,33.1a.56.56,0,0,0,0-.79l-7-7a.57.57,0,0,0-.79,0l-7,7a.56.56,0,0,0,0,.79l1.59,1.59a.56.56,0,0,0,.79,0l3.2-3.2a21.59,21.59,0,0,0,40.07,9.59.54.54,0,0,0-.21-.75l-2-1.1A.57.57,0,0,0,45.5,39.44Z" fill="#fff"/>
          <path d="M11.39,18.92a.54.54,0,0,0,.21.75l2,1.1a.57.57,0,0,0,.77-.21A18.22,18.22,0,0,1,48.1,28.79l-3.48-3.48a.56.56,0,0,0-.79,0L42.24,26.9a.56.56,0,0,0,0,.79l7,7a.56.56,0,0,0,.79,0l7-7a.57.57,0,0,0,0-.79l-1.59-1.59a.56.56,0,0,0-.79,0l-3.2,3.2a21.59,21.59,0,0,0-40.06-9.59Z" fill="#fff"/>
        </g>
      </g>
    </g>
  </g>
</svg>
