<svg xmlns="http://www.w3.org/2000/svg" width="87.272" height="87.27" viewBox="0 0 87.272 87.27">
  <g id="Group_1783" data-name="Group 1783" transform="translate(-12123.246 -2413.832)">
    <g id="Group_1782" data-name="Group 1782">
      <g id="Group_1781" data-name="Group 1781">
        <g id="Group_1780" data-name="Group 1780">
          <path id="Path_1839" data-name="Path 1839" d="M12209.818,2486.256h-62.625a3.191,3.191,0,0,1-2.918-1.8,3.033,3.033,0,0,1,.619-3.511l8.361-8.363a2.75,2.75,0,0,1,3.448-.417,2.681,2.681,0,0,1,.415,4.127l-3.445,3.446a.7.7,0,0,0,0,.987l1.975,1.975a.7.7,0,0,0,.985,0l3.448-3.446c.119-.119.229-.241.337-.366a12.831,12.831,0,0,0,4.547,1.113c.041,0,.081.005.121.005a2.1,2.1,0,0,0,2.087-2.275,2.167,2.167,0,0,0-2.054-1.917,8.681,8.681,0,0,1-3.061-.786,6.841,6.841,0,0,0-4.972-7.232,8.615,8.615,0,1,1,16.45,2.964c-.577,1.275-1.25,3.149-.431,4.7a2.981,2.981,0,0,0,2.173,1.551,3.43,3.43,0,0,0,.612.055c1.646,0,2.948-1.2,4.21-2.367,1.821-1.68,4.085-3.77,8.032-3.77h21.685a.7.7,0,0,0,.7-.7v-2.787a.7.7,0,0,0-.7-.7h-21.685a14.52,14.52,0,0,0-10.229,4.29,12.8,12.8,0,1,0-25-3.092,6.82,6.82,0,0,0-2.53,1.6l-8.217,8.216a7.579,7.579,0,0,0-1.7,8.408,7.181,7.181,0,0,0,6.643,4.276h62.724a.7.7,0,0,0,.7-.7v-2.79A.7.7,0,0,0,12209.818,2486.256Z" fill="#5d658c"/>
        </g>
      </g>
    </g>
    <rect id="Rectangle_1131" data-name="Rectangle 1131" width="87.272" height="87.27" transform="translate(12123.246 2413.832)" fill="none"/>
  </g>
</svg>
