<svg xmlns="http://www.w3.org/2000/svg" width="71.883" height="72" viewBox="0 0 71.883 72">
  <g id="Group_558" data-name="Group 558" transform="translate(-3658.059 -3798.039)">
    <path id="Path_692" data-name="Path 692" d="M3694,3804.039a30.034,30.034,0,0,0-29.926,28h59.852A30.034,30.034,0,0,0,3694,3804.039Z" fill="#ecedf0" opacity="0.3"/>
    <path id="Path_693" data-name="Path 693" d="M3694,3804.039a30.034,30.034,0,0,1,29.926,28h6.016a36,36,0,0,0-71.883,0h6.015A30.034,30.034,0,0,1,3694,3804.039Z" fill="#ecedf0"/>
    <path id="Path_694" data-name="Path 694" d="M3694,3864.039a30.035,30.035,0,0,1-29.926-28h-6.015a36,36,0,0,0,71.883,0h-6.016A30.035,30.035,0,0,1,3694,3864.039Z" fill="#ecedf0"/>
    <path id="Path_695" data-name="Path 695" d="M3694,3864.039a30.035,30.035,0,0,0,29.926-28h-59.852A30.035,30.035,0,0,0,3694,3864.039Z" fill="#ecedf0" opacity="0.3"/>
  </g>
</svg>
