<svg xmlns="http://www.w3.org/2000/svg" width="42" height="32" viewBox="0 0 42 32">
  <g id="Group_1824" data-name="Group 1824" transform="translate(-11090.854 -4117.469)">
    <rect id="Rectangle_1149" data-name="Rectangle 1149" width="42" height="32" transform="translate(11090.854 4117.469)" fill="none"/>
    <g id="Group_1823" data-name="Group 1823">
      <path id="Path_1869" data-name="Path 1869" d="M11112.3,4129.186a6.148,6.148,0,0,0-1.405-4.2c-.128-.156-.261-.3-.394-.436s-.282-.268-.434-.392a6.169,6.169,0,0,0-8.293.393l-9.108,9.108a6.143,6.143,0,0,0-.651,7.957,5.847,5.847,0,0,0,.647.772,5.949,5.949,0,0,0,.77.646,6.142,6.142,0,0,0,7.96-.65l9.107-9.108A6.147,6.147,0,0,0,11112.3,4129.186Zm-3.272-3.762c.112.093.219.188.314.284a4.1,4.1,0,0,1,.287.319,4.509,4.509,0,0,1-.288,6.091l-3.99,3.989-6.407-6.408,3.988-3.99A4.513,4.513,0,0,1,11109.03,4125.424Zm-14.892,16.09c-.112-.093-.219-.189-.314-.284s-.189-.2-.287-.319a4.509,4.509,0,0,1,.288-6.091l3.99-3.99,6.407,6.409-3.988,3.989A4.513,4.513,0,0,1,11094.139,4141.514Z" fill="#5d658c"/>
      <g id="Group_1821" data-name="Group 1821">
        <path id="Path_1870" data-name="Path 1870" d="M11121.137,4124.986c-.127-.156-.26-.3-.393-.436a5.78,5.78,0,0,0-.435-.392,6.16,6.16,0,0,0-8.2.31,7.389,7.389,0,0,1,.855,1.453l.211-.212a4.511,4.511,0,0,1,6.095-.285c.113.093.22.188.315.284s.189.2.287.319a4.509,4.509,0,0,1-.288,6.091l-3.99,3.989-3.183-3.183a7.5,7.5,0,0,1-1,1.257h0l3.056,3.057-3.989,3.989a4.511,4.511,0,0,1-6.095.286c-.057-.047-.105-.1-.16-.144l-1.159,1.159a5.858,5.858,0,0,0,.615.505,6.142,6.142,0,0,0,7.96-.65l9.107-9.108a6.169,6.169,0,0,0,.395-8.29Z" fill="#5d658c"/>
        <path id="Path_1871" data-name="Path 1871" d="M11104.379,4141.514a4.511,4.511,0,0,0,6.095-.286l3.989-3.989-3.056-3.057-7.188,7.188C11104.273,4141.418,11104.322,4141.467,11104.379,4141.514Z" fill="#5d658c" opacity="0.5"/>
      </g>
      <g id="Group_1822" data-name="Group 1822">
        <path id="Path_1872" data-name="Path 1872" d="M11131.184,4124.986a5.717,5.717,0,0,0-.394-.436c-.134-.135-.282-.268-.433-.392a6.161,6.161,0,0,0-8.2.31,7.438,7.438,0,0,1,.855,1.453l.211-.212a4.511,4.511,0,0,1,6.095-.285c.113.093.22.188.315.284s.189.2.287.319a4.509,4.509,0,0,1-.289,6.091l-3.989,3.989-3.184-3.183a7.45,7.45,0,0,1-1,1.257h0l3.057,3.057-3.99,3.989a4.51,4.51,0,0,1-6.094.286c-.058-.047-.106-.1-.16-.144l-1.159,1.159a5.759,5.759,0,0,0,.615.505,6.141,6.141,0,0,0,7.959-.65l9.108-9.108a6.169,6.169,0,0,0,.395-8.29Z" fill="#5d658c"/>
        <path id="Path_1873" data-name="Path 1873" d="M11114.426,4141.514a4.51,4.51,0,0,0,6.094-.286l3.99-3.989-3.057-3.057-7.187,7.188C11114.319,4141.418,11114.368,4141.467,11114.426,4141.514Z" fill="#5d658c" opacity="0.5"/>
      </g>
      <path id="Path_1874" data-name="Path 1874" d="M11094.139,4141.514c-.112-.093-.219-.189-.314-.284s-.189-.2-.287-.319a4.509,4.509,0,0,1,.288-6.091l3.99-3.99,6.407,6.409-3.988,3.989A4.513,4.513,0,0,1,11094.139,4141.514Z" fill="#5d658c" opacity="0.5"/>
    </g>
  </g>
</svg>
