<svg xmlns="http://www.w3.org/2000/svg" width="120" height="120" viewBox="0 0 120 120">
  <g id="Group_1692" data-name="Group 1692" transform="translate(-12106.882 -4397.469)">
    <rect id="Rectangle_1063" data-name="Rectangle 1063" width="120" height="120" rx="60" transform="translate(12106.882 4397.469)" fill="none" opacity="0.5"/>
    <g id="Group_1691" data-name="Group 1691">
      <g id="Group_1690" data-name="Group 1690">
        <g id="Group_1688" data-name="Group 1688">
          <path id="Path_1799" data-name="Path 1799" d="M12137.323,4482.3a.7.7,0,0,0,.7.7h55.514a.7.7,0,0,0,.7-.7v-12.4a.7.7,0,0,0-.7-.7h-55.514a.7.7,0,0,0-.7.7Zm52.721-3.491h-13.367V4473.4h13.367Zm-48.532-5.416h30.976v5.416h-30.976Z" fill="#5d658c"/>
        </g>
        <g id="Group_1689" data-name="Group 1689">
          <path id="Path_1800" data-name="Path 1800" d="M12156.922,4431.941a8.223,8.223,0,1,0,0,16.446h9.041a4.034,4.034,0,1,1,0,8.069h-20.418a8.235,8.235,0,0,0-8.2,7.54.651.651,0,0,0,.672.684h2.792a.819.819,0,0,0,.763-.714,4.037,4.037,0,0,1,3.969-3.321h20.418a8.223,8.223,0,1,0,0-16.446h-9.041a4.035,4.035,0,1,1,0-8.07h36.729a.7.7,0,0,0,.7-.7v-2.793a.7.7,0,0,0-.7-.7Z" fill="#5d658c"/>
        </g>
      </g>
      <rect id="Rectangle_1064" data-name="Rectangle 1064" width="87.273" height="87.274" transform="translate(12123.246 4413.832)" fill="none"/>
    </g>
  </g>
</svg>
