<svg xmlns="http://www.w3.org/2000/svg" width="42" height="32" viewBox="0 0 42 32">
  <g id="Group_1836" data-name="Group 1836" transform="translate(-11089.594 -4309.05)">
    <rect id="Rectangle_1153" data-name="Rectangle 1153" width="42" height="32" transform="translate(11089.594 4309.05)" fill="none"/>
    <g id="Group_1835" data-name="Group 1835">
      <path id="Path_1889" data-name="Path 1889" d="M11111.043,4320.768a6.147,6.147,0,0,0-1.406-4.2c-.127-.156-.26-.3-.394-.437a5.453,5.453,0,0,0-.434-.391,6.171,6.171,0,0,0-8.293.392l-9.107,9.108a6.143,6.143,0,0,0-.651,7.958,5.835,5.835,0,0,0,.647.772,5.9,5.9,0,0,0,.77.646,6.144,6.144,0,0,0,7.959-.65l9.108-9.108A6.154,6.154,0,0,0,11111.043,4320.768Zm-3.273-3.762a4.1,4.1,0,0,1,.315.284,4.213,4.213,0,0,1,.287.319,4.508,4.508,0,0,1-.288,6.09l-3.99,3.99-6.408-6.409,3.989-3.989A4.51,4.51,0,0,1,11107.77,4317.006Zm-14.891,16.089a4.1,4.1,0,0,1-.314-.284,3.912,3.912,0,0,1-.287-.319,4.509,4.509,0,0,1,.288-6.091l3.988-3.989,6.409,6.408-3.99,3.99A4.509,4.509,0,0,1,11092.879,4333.1Z" fill="#d5d6d9"/>
      <g id="Group_1833" data-name="Group 1833">
        <path id="Path_1890" data-name="Path 1890" d="M11119.877,4316.568c-.127-.156-.26-.3-.394-.437a5.629,5.629,0,0,0-.434-.391,6.162,6.162,0,0,0-8.2.309,7.38,7.38,0,0,1,.856,1.453l.211-.211a4.51,4.51,0,0,1,6.095-.285c.113.092.219.188.315.284s.188.2.287.319a4.508,4.508,0,0,1-.288,6.09l-3.99,3.99-3.183-3.184a7.473,7.473,0,0,1-1,1.258h0l3.057,3.056-3.99,3.99a4.509,4.509,0,0,1-6.094.285c-.059-.047-.106-.1-.16-.144l-1.16,1.16a6.17,6.17,0,0,0,8.575-.145l9.108-9.108a6.169,6.169,0,0,0,.395-8.29Z" fill="#d5d6d9"/>
        <path id="Path_1891" data-name="Path 1891" d="M11103.119,4333.1a4.509,4.509,0,0,0,6.094-.285l3.99-3.99-3.057-3.056-7.187,7.187C11103.013,4333,11103.061,4333.048,11103.119,4333.1Z" fill="#d5d6d9" opacity="0.5"/>
      </g>
      <g id="Group_1834" data-name="Group 1834">
        <path id="Path_1892" data-name="Path 1892" d="M11129.924,4316.568c-.128-.156-.26-.3-.394-.437a5.644,5.644,0,0,0-.435-.391,6.162,6.162,0,0,0-8.2.309,7.285,7.285,0,0,1,.856,1.453l.212-.211a4.509,4.509,0,0,1,6.094-.285,3.762,3.762,0,0,1,.315.284,4.014,4.014,0,0,1,.287.319,4.506,4.506,0,0,1-.288,6.09l-3.989,3.99-3.184-3.184a7.467,7.467,0,0,1-1,1.258h0l3.056,3.056-3.989,3.99a4.509,4.509,0,0,1-6.094.285c-.058-.047-.107-.1-.16-.144l-1.16,1.16a5.994,5.994,0,0,0,.616.505,6.144,6.144,0,0,0,7.959-.65l9.108-9.108a6.169,6.169,0,0,0,.395-8.29Z" fill="#d5d6d9"/>
        <path id="Path_1893" data-name="Path 1893" d="M11113.166,4333.1a4.509,4.509,0,0,0,6.094-.285l3.989-3.99-3.056-3.056-7.187,7.187C11113.059,4333,11113.108,4333.048,11113.166,4333.1Z" fill="#d5d6d9" opacity="0.5"/>
      </g>
      <path id="Path_1894" data-name="Path 1894" d="M11092.879,4333.1a4.1,4.1,0,0,1-.314-.284,3.912,3.912,0,0,1-.287-.319,4.509,4.509,0,0,1,.288-6.091l3.988-3.989,6.409,6.408-3.99,3.99A4.509,4.509,0,0,1,11092.879,4333.1Z" fill="#d5d6d9" opacity="0.5"/>
    </g>
  </g>
</svg>
