<svg xmlns="http://www.w3.org/2000/svg" viewBox="0 0 60 60"><defs><style>.cls-1{fill:#b7cbe7;}.cls-2{fill:#5d658c;}</style></defs><title>Asset 1</title><g id="Layer_2" data-name="Layer 2"><g id="bg"><circle class="cls-1" cx="30" cy="30" r="30"/><path class="cls-2" d="M30,27.68a7.17,7.17,0,1,0-7.17-7.17A7.17,7.17,0,0,0,30,27.68Zm0-12a4.85,4.85,0,1,1-4.85,4.85A4.86,4.86,0,0,1,30,15.67Z"/><path class="cls-2" d="M34.86,29.87a12.33,12.33,0,0,0-1.93-.65L32,31.36l-2,4.75-2-4.75-.91-2.14a12.33,12.33,0,0,0-1.93.65,13.28,13.28,0,0,0-7.89,12v4.52a.22.22,0,0,0,.22.22h1.88a.22.22,0,0,0,.22-.22v-4.6A10.71,10.71,0,0,1,25.95,32l3.57,9.37a.5.5,0,0,0,1,0L34.05,32a10.71,10.71,0,0,1,6.38,9.83v4.6a.22.22,0,0,0,.22.22h1.88a.22.22,0,0,0,.22-.22V41.92A13.28,13.28,0,0,0,34.86,29.87Z"/></g></g></svg>