<svg xmlns="http://www.w3.org/2000/svg" width="200" height="60" viewBox="0 0 200 60">
  <title>logo</title>
  <g id="93e90216-0a89-44c0-9abd-20b38abaff12" data-name="Layer 2">
    <g id="ba11ec59-018e-48b9-8ba3-dd2dadb4d004" data-name="navigation">
      <g>
        <path d="M80.13,16.67A9.34,9.34,0,0,1,89.48,26V43.34H83.62V25.86a4.14,4.14,0,0,0-4.14-4.13H77.21v21.6H71.34V21.73h-6.4v21.6H59.08V16.84c1.95-.11,3.9-.18,5.87-.18ZM47.78,35.73A8.13,8.13,0,1,1,50.13,30a8.11,8.11,0,0,1-2.35,5.73l4.15,4.14A14,14,0,1,0,42,44a14,14,0,0,0,9.92-4.13m86.63-4.12A8.13,8.13,0,1,1,140.94,30a8.12,8.12,0,0,1-2.38,5.75l4.11,4.2A14,14,0,1,0,132.8,44a14,14,0,0,0,9.86-4.05m-31.85,3.39H118L108.13,30l.2,4.36a8.48,8.48,0,0,0,8.47-8.48,9.2,9.2,0,0,0-9.2-9.2H99.87c-2,0-3.92.06-5.87.18V43.34h5.87V21.73h6.93a4.13,4.13,0,0,1,0,8.27h-5.07Zm44.67-26.66q-3,0-5.87.18V43.34h5.87V21.73H162a4.14,4.14,0,0,1,4.13,4.13V43.34H172V26a9.33,9.33,0,0,0-9.33-9.33Z" fill="#fff"/>
        <rect width="200" height="60" fill="none"/>
      </g>
    </g>
  </g>
</svg>
